0
SECTION
2
HEADER
9
$INSUNITS
70
4
9
$ACADVER
1
AC1014
9
$HANDSEED
5
FFFF
0
ENDSEC
0
SECTION
2
TABLES
0
TABLE
2
VPORT
5
8
100
AcDbSymbolTable
0
ENDTAB
0
TABLE
2
LTYPE
5
5
100
AcDbSymbolTable
0
LTYPE
5
14
100
AcDbSymbolTableRecord
100
AcDbLinetypeTableRecord
2
BYBLOCK
70
0
0
LTYPE
5
15
100
AcDbSymbolTableRecord
100
AcDbLinetypeTableRecord
2
BYLAYER
70
0
0
ENDTAB
0
TABLE
2
LAYER
5
2
100
AcDbSymbolTable
70
2
0
LAYER
5
50
100
AcDbSymbolTableRecord
100
AcDbLayerTableRecord
2
0
70
0
6
CONTINUOUS
0
ENDTAB
0
TABLE
2
STYLE
5
3
100
AcDbSymbolTable
70
1
0
STYLE
5
11
100
AcDbSymbolTableRecord
100
AcDbTextStyleTableRecord
2
STANDARD
70
0
0
ENDTAB
0
TABLE
2
VIEW
5
6
100
AcDbSymbolTable
70
0
0
ENDTAB
0
TABLE
2
UCS
5
7
100
AcDbSymbolTable
70
0
0
ENDTAB
0
TABLE
2
APPID
5
9
100
AcDbSymbolTable
70
2
0
APPID
5
12
100
AcDbSymbolTableRecord
100
AcDbRegAppTableRecord
2
ACAD
70
0
0
ENDTAB
0
TABLE
2
DIMSTYLE
5
A
100
AcDbSymbolTable
70
1
0
ENDTAB
0
TABLE
2
BLOCK_RECORD
5
1
100
AcDbSymbolTable
70
1
0
BLOCK_RECORD
5
1F
100
AcDbSymbolTableRecord
100
AcDbBlockTableRecord
2
*MODEL_SPACE
0
BLOCK_RECORD
5
1B
100
AcDbSymbolTableRecord
100
AcDbBlockTableRecord
2
*PAPER_SPACE
0
ENDTAB
0
ENDSEC
0
SECTION
2
BLOCKS
0
BLOCK
5
20
100
AcDbEntity
100
AcDbBlockBegin
2
*MODEL_SPACE
0
ENDBLK
5
21
100
AcDbEntity
100
AcDbBlockEnd
0
BLOCK
5
1C
100
AcDbEntity
100
AcDbBlockBegin
2
*PAPER_SPACE
0
ENDBLK
5
1D
100
AcDbEntity
100
AcDbBlockEnd
0
ENDSEC
0
SECTION
2
ENTITIES
0
LWPOLYLINE
5
100
100
AcDbEntity
8
0
100
AcDbPolyline
90
18
70
1
43
0.0
10
-219.64050717874997
20
-31.999999999999975
42
-0.19891236737966148
10
-223.17604108468271
20
-30.535533905932716
10
-244.53553757161839
20
-9.1760374189970051
42
-0.19891236737965984
10
-246.00000366568565
20
-5.6405035130642638
10
-246.00000366568565
20
5.6405035130643366
42
-0.19891236737965731
10
-244.53553757161839
20
9.176037418997085
10
-223.17604108468271
20
30.535533905932731
42
-0.19891236737966123
10
-219.64050717874997
20
31.999999999999989
10
-37.200000000000017
20
31.999999999999879
42
0.32390717142937336
10
-32.450411202009157
20
35.43749999999995
42
-0.32390717142937181
10
-29.600657923214648
20
37.499999999999993
10
21.79999999999999
20
37.500000000000007
42
-0.41421356237309509
10
26.799999999999983
20
32.500000000000014
10
26.800000000000132
20
-32.499999999999986
42
-0.41421356237309681
10
21.799999999999976
20
-37.500000000000114
10
-29.600657923214658
20
-37.500000000000078
42
-0.32390717142937214
10
-32.450411202009171
20
-35.437500000000028
42
0.32390717142937253
10
-37.200000000000024
20
-31.999999999999954
0
LWPOLYLINE
5
101
100
AcDbEntity
8
0
100
AcDbPolyline
90
4
70
1
43
0.0
10
-27.89025000000499
20
17.920310216908927
10
-27.89025000000499
20
25.920310216908927
10
-30.890250000004997
20
25.920310216908927
10
-30.890250000004997
20
17.920310216908927
0
LWPOLYLINE
5
102
100
AcDbEntity
8
0
100
AcDbPolyline
90
4
70
1
43
0.0
10
-27.89025000000499
20
-25.920310216908927
10
-27.89025000000499
20
-17.920310216908927
10
-30.890250000004997
20
-17.920310216908927
10
-30.890250000004997
20
-25.920310216908927
0
LWPOLYLINE
5
103
100
AcDbEntity
8
0
100
AcDbPolyline
90
8
70
1
43
0.0
10
-101.90693522645211
20
-4.9999999999999982
42
-0.53452248382484913
10
-116.87356477354788
20
-4.9999999999999982
10
-183.78049999999999
20
-5
42
-0.99999999999999989
10
-183.78049999999999
20
5
10
-116.87356477354788
20
4.9999999999999991
42
-0.53452248382484913
10
-101.90693522645211
20
4.9999999999999982
10
-34.999999999999993
20
5
42
-0.99999999999999989
10
-35
20
-5
0
LWPOLYLINE
5
104
100
AcDbEntity
8
0
100
AcDbPolyline
90
4
70
1
43
0.0
10
-189.78049999999999
20
11.420000000000003
10
-199.78049999999979
20
11.419999999999991
42
0.99999999999999989
10
-199.78050000000022
20
8.4200000000000053
10
-189.78049999999999
20
8.4199999999999928
42
0.99999999999999989
0
LWPOLYLINE
5
105
100
AcDbEntity
8
0
100
AcDbPolyline
90
4
70
1
43
0.0
10
-19.00000062698243
20
-8.4199994734994732
10
-29.00000062698243
20
-8.4199994734994714
42
0.99999999999999989
10
-29.00000062698243
20
-11.419999473499471
10
-19.00000062698243
20
-11.419999473499471
42
0.99999999999999989
0
CIRCLE
5
106
100
AcDbEntity
8
0
100
AcDbCircle
10
-69.390250000004997
20
-21.920310216908916
30
0
40
1.5000000000000036
210
0
220
-0
230
1
0
CIRCLE
5
107
100
AcDbEntity
8
0
100
AcDbCircle
10
-6.6613381477509392e-15
20
21.920310216782983
30
0
40
1.7999999999999954
210
0
220
-0
230
1
0
CIRCLE
5
108
100
AcDbEntity
8
0
100
AcDbCircle
10
-28.149999999999984
20
-32.519999999999996
30
0
40
1.5000000000000036
210
0
220
-0
230
1
0
CIRCLE
5
109
100
AcDbEntity
8
0
100
AcDbCircle
10
-218.78049999999999
20
21.920310216782983
30
0
40
1.7999999999999972
210
0
220
-0
230
1
0
CIRCLE
5
110
100
AcDbEntity
8
0
100
AcDbCircle
10
21.920310216782966
20
4.4408920985006262e-15
30
0
40
1.7999999999999954
210
0
220
-0
230
1
0
CIRCLE
5
111
100
AcDbEntity
8
0
100
AcDbCircle
10
-99.390250000004983
20
21.920310216908927
30
0
40
1.5000000000000036
210
0
220
-0
230
1
0
CIRCLE
5
112
100
AcDbEntity
8
0
100
AcDbCircle
10
-99.390250000004997
20
-21.920310216908916
30
0
40
1.5000000000000036
210
0
220
-0
230
1
0
CIRCLE
5
113
100
AcDbEntity
8
0
100
AcDbCircle
10
-199.39025000000498
20
-21.920310216908916
30
0
40
1.4999999999999858
210
0
220
-0
230
1
0
CIRCLE
5
114
100
AcDbEntity
8
0
100
AcDbCircle
10
-89.390250000004983
20
21.920310216908927
30
0
40
1.5000000000000036
210
0
220
-0
230
1
0
CIRCLE
5
115
100
AcDbEntity
8
0
100
AcDbCircle
10
-59.390250000004997
20
-21.920310216908916
30
0
40
1.5000000000000036
210
0
220
-0
230
1
0
CIRCLE
5
116
100
AcDbEntity
8
0
100
AcDbCircle
10
-79.390250000004997
20
21.920310216908927
30
0
40
1.5000000000000122
210
0
220
-0
230
1
0
CIRCLE
5
117
100
AcDbEntity
8
0
100
AcDbCircle
10
-49.39025000000499
20
21.920310216908927
30
0
40
1.5000000000000036
210
0
220
-0
230
1
0
CIRCLE
5
118
100
AcDbEntity
8
0
100
AcDbCircle
10
-69.390250000004997
20
21.920310216908927
30
0
40
1.5000000000000036
210
0
220
-0
230
1
0
CIRCLE
5
119
100
AcDbEntity
8
0
100
AcDbCircle
10
-89.390250000004997
20
-21.920310216908916
30
0
40
1.5000000000000036
210
0
220
-0
230
1
0
CIRCLE
5
120
100
AcDbEntity
8
0
100
AcDbCircle
10
-79.390250000004997
20
-21.920310216908916
30
0
40
1.5000000000000036
210
0
220
-0
230
1
0
CIRCLE
5
121
100
AcDbEntity
8
0
100
AcDbCircle
10
-179.39025000000498
20
21.920310216908927
30
0
40
1.4999999999999858
210
0
220
-0
230
1
0
CIRCLE
5
122
100
AcDbEntity
8
0
100
AcDbCircle
10
-49.390250000004997
20
-21.920310216908916
30
0
40
1.5000000000000036
210
0
220
-0
230
1
0
CIRCLE
5
123
100
AcDbEntity
8
0
100
AcDbCircle
10
-189.39025000000498
20
21.920310216908927
30
0
40
1.4999999999999858
210
0
220
-0
230
1
0
CIRCLE
5
124
100
AcDbEntity
8
0
100
AcDbCircle
10
-39.390250000004997
20
-21.920310216908916
30
0
40
1.5000000000000036
210
0
220
-0
230
1
0
CIRCLE
5
125
100
AcDbEntity
8
0
100
AcDbCircle
10
-139.39025000000498
20
21.920310216908927
30
0
40
1.5000000000000036
210
0
220
-0
230
1
0
CIRCLE
5
126
100
AcDbEntity
8
0
100
AcDbCircle
10
-196.86018978321698
20
6.6613381477509392e-15
30
0
40
1.7999999999999972
210
0
220
-0
230
1
0
CIRCLE
5
127
100
AcDbEntity
8
0
100
AcDbCircle
10
-109.390250000005
20
-21.920310216908916
30
0
40
1.5000000000000036
210
0
220
-0
230
1
0
CIRCLE
5
128
100
AcDbEntity
8
0
100
AcDbCircle
10
-21.920310216782983
20
6.6613381477509392e-15
30
0
40
1.7999999999999954
210
0
220
-0
230
1
0
CIRCLE
5
129
100
AcDbEntity
8
0
100
AcDbCircle
10
-218.78049999999999
20
0
30
0
40
11.799999999999997
210
0
220
0
230
1
0
CIRCLE
5
130
100
AcDbEntity
8
0
100
AcDbCircle
10
0
20
0
30
0
40
11.800000000000004
210
0
220
-0
230
1
0
CIRCLE
5
131
100
AcDbEntity
8
0
100
AcDbCircle
10
-189.39025000000498
20
-21.920310216908916
30
0
40
1.4999999999999858
210
0
220
-0
230
1
0
CIRCLE
5
132
100
AcDbEntity
8
0
100
AcDbCircle
10
-59.39025000000499
20
21.920310216908927
30
0
40
1.5000000000000036
210
0
220
-0
230
1
0
CIRCLE
5
133
100
AcDbEntity
8
0
100
AcDbCircle
10
-169.39025000000498
20
21.920310216908927
30
0
40
1.4999999999999858
210
0
220
-0
230
1
0
CIRCLE
5
134
100
AcDbEntity
8
0
100
AcDbCircle
10
-39.39025000000499
20
21.920310216908927
30
0
40
1.5000000000000036
210
0
220
-0
230
1
0
CIRCLE
5
135
100
AcDbEntity
8
0
100
AcDbCircle
10
-1.3322676295501878e-14
20
-21.920310216782969
30
0
40
1.7999999999999954
210
0
220
-0
230
1
0
CIRCLE
5
136
100
AcDbEntity
8
0
100
AcDbCircle
10
-159.39025000000501
20
-21.920310216908916
30
0
40
1.5000000000000036
210
0
220
-0
230
1
0
CIRCLE
5
137
100
AcDbEntity
8
0
100
AcDbCircle
10
-109.39025000000498
20
21.920310216908927
30
0
40
1.5000000000000036
210
0
220
-0
230
1
0
CIRCLE
5
138
100
AcDbEntity
8
0
100
AcDbCircle
10
-159.39025000000498
20
21.920310216908927
30
0
40
1.4999999999999858
210
0
220
-0
230
1
0
CIRCLE
5
139
100
AcDbEntity
8
0
100
AcDbCircle
10
-240.70081021678294
20
4.4408920985006262e-15
30
0
40
1.7999999999999972
210
0
220
-0
230
1
0
CIRCLE
5
140
100
AcDbEntity
8
0
100
AcDbCircle
10
-169.39025000000498
20
-21.920310216908916
30
0
40
1.4999999999999858
210
0
220
-0
230
1
0
CIRCLE
5
141
100
AcDbEntity
8
0
100
AcDbCircle
10
-149.39025000000501
20
-21.920310216908916
30
0
40
1.5000000000000036
210
0
220
-0
230
1
0
CIRCLE
5
142
100
AcDbEntity
8
0
100
AcDbCircle
10
-119.390250000005
20
-21.920310216908916
30
0
40
1.5000000000000036
210
0
220
-0
230
1
0
CIRCLE
5
143
100
AcDbEntity
8
0
100
AcDbCircle
10
-179.39025000000498
20
-21.920310216908916
30
0
40
1.4999999999999858
210
0
220
-0
230
1
0
CIRCLE
5
144
100
AcDbEntity
8
0
100
AcDbCircle
10
-218.78050000000997
20
-21.92031021703486
30
0
40
1.7999999999999972
210
0
220
-0
230
1
0
CIRCLE
5
145
100
AcDbEntity
8
0
100
AcDbCircle
10
-129.39025000000498
20
21.920310216908927
30
0
40
1.5000000000000036
210
0
220
-0
230
1
0
CIRCLE
5
146
100
AcDbEntity
8
0
100
AcDbCircle
10
-129.39025000000501
20
-21.920310216908916
30
0
40
1.5000000000000036
210
0
220
-0
230
1
0
CIRCLE
5
147
100
AcDbEntity
8
0
100
AcDbCircle
10
-119.39025000000498
20
21.920310216908927
30
0
40
1.5000000000000036
210
0
220
-0
230
1
0
CIRCLE
5
148
100
AcDbEntity
8
0
100
AcDbCircle
10
-28.150000000000006
20
32.480000000000004
30
0
40
1.4999999999999991
210
0
220
-0
230
1
0
CIRCLE
5
149
100
AcDbEntity
8
0
100
AcDbCircle
10
21.849999999999994
20
32.480000000000025
30
0
40
1.4999999999999991
210
0
220
-0
230
1
0
CIRCLE
5
150
100
AcDbEntity
8
0
100
AcDbCircle
10
-139.39025000000501
20
-21.920310216908916
30
0
40
1.5000000000000036
210
0
220
-0
230
1
0
CIRCLE
5
151
100
AcDbEntity
8
0
100
AcDbCircle
10
-199.39025000000498
20
21.920310216908927
30
0
40
1.4999999999999858
210
0
220
-0
230
1
0
CIRCLE
5
152
100
AcDbEntity
8
0
100
AcDbCircle
10
21.850000000000016
20
-32.519999999999982
30
0
40
1.5000000000000036
210
0
220
-0
230
1
0
CIRCLE
5
153
100
AcDbEntity
8
0
100
AcDbCircle
10
-149.39025000000498
20
21.920310216908927
30
0
40
1.5000000000000036
210
0
220
-0
230
1
0
ENDSEC
0
SECTION
2
OBJECTS
0
DICTIONARY
5
C
100
AcDbDictionary
3
ACAD_GROUP
350
D
3
ACAD_MLINESTYLE
350
17
0
DICTIONARY
5
D
100
AcDbDictionary
0
DICTIONARY
5
1A
330
C
100
AcDbDictionary
0
DICTIONARY
5
17
100
AcDbDictionary
0
ENDSEC
0
EOF
